<?xml version="1.0" encoding="utf-8"?>
<!-- Generator: Adobe Illustrator 25.2.1, SVG Export Plug-In . SVG Version: 6.00 Build 0)  -->
<svg version="1.1" id="圖層_1" xmlns="http://www.w3.org/2000/svg" xmlns:xlink="http://www.w3.org/1999/xlink" x="0px" y="0px"
	 viewBox="0 0 24 24" style="enable-background:new 0 0 24 24;" xml:space="preserve">
<path d="M19.7,8.5h-5.3l1-3.4c0.2-0.6,0.1-1.3-0.2-1.8s-1-0.8-1.5-0.8H12c-0.3,0-0.6,0.2-0.7,0.4L6.7,8.5H4.3c-1,0-1.9,0.9-1.9,2
	v9.1c0,1.1,0.9,2,1.9,2h12.8c0.8,0,1.5-0.6,1.8-1.3l2.6-7.4c0.1-0.1,0.1-0.2,0.1-0.3v-2C21.6,9.4,20.7,8.5,19.7,8.5z M4.3,10.5h1.9
	v9.1H4.3V10.5z M19.7,12.3l-2.6,7.3H8.2V9.8l4.3-5.4h1.1l-1.5,4.7c-0.2,0.6,0.1,1.1,0.6,1.3c0.1,0,0.2,0.1,0.3,0.1h6.7L19.7,12.3
	L19.7,12.3z"/>
</svg>
