<?xml version="1.0" encoding="utf-8"?>
<!-- Generator: Adobe Illustrator 25.2.1, SVG Export Plug-In . SVG Version: 6.00 Build 0)  -->
<svg version="1.1" id="圖層_1" xmlns="http://www.w3.org/2000/svg" xmlns:xlink="http://www.w3.org/1999/xlink" x="0px" y="0px"
	 viewBox="0 0 48 48" style="enable-background:new 0 0 48 48;" xml:space="preserve">
<path d="M24,12.9c-0.2,0-0.4,0.1-0.5,0.2l-8.1,6.4c-1,0.8-1.6,2-1.6,3.3v10.8c0,0.8,0.6,1.4,1.4,1.4h5.7c0.8,0,1.4-0.6,1.4-1.4V28
	c0-0.2,0.1-0.3,0.3-0.3h2.8c0.2,0,0.3,0.1,0.3,0.3v5.7c0,0.8,0.6,1.4,1.4,1.4h5.7c0.8,0,1.4-0.6,1.4-1.4V22.8c0-1.3-0.6-2.5-1.6-3.3
	l-8.1-6.4C24.4,13,24.2,12.9,24,12.9z M24,14.9l7.5,5.9c0.6,0.5,1,1.2,1,2v10.5h-5.1V28c0-1.1-0.9-2-2-2h-2.8c-1.1,0-2,0.9-2,2v5.4
	h-5.1V22.8c0-0.8,0.4-1.5,1-2L24,14.9z"/>
</svg>
