<svg id="圖層_1" data-name="圖層 1" xmlns="http://www.w3.org/2000/svg" width="292.36" height="41.56" viewBox="0 0 292.36 41.56">
  <g id="r1PUXe.tif">
    <g>
      <path d="M153.26,23.09c3.83,0,7.61-.07,11.38.09.51,0,1.28,1.13,1.39,1.82,1.12,6.86,2.11,13.75,3.15,20.62.13.83.39,1.64.58,2.45h.61c.19-.77.41-1.53.57-2.3,1-4.58,2-9.17,2.84-13.77a2,2,0,0,1,2.43-2c3,.1,6.08.14,9.12,0,1.88-.09,2.69.55,3,2.42.8,4.39,1.8,8.74,2.74,13.1.18.85.44,1.68.66,2.51l.62,0c.17-.75.38-1.49.5-2.24,1-6.88,2.1-13.75,3.05-20.64.22-1.59.78-2.21,2.44-2.16,3.47.11,6.95,0,10.74,0-.16,1-.24,1.75-.4,2.45-2.72,11.94-5.48,23.88-8.13,35.84-.41,1.86-1.1,2.66-3.13,2.53a77.37,77.37,0,0,0-8.88,0c-1.76.09-2.37-.61-2.71-2.2-1.2-5.54-2.52-11.06-3.81-16.59a4.75,4.75,0,0,0-1.21-2.37,21.16,21.16,0,0,0-.74,2.16c-1.34,5.67-2.69,11.33-3.92,17-.32,1.44-.89,2-2.42,2-3.34-.1-6.69,0-10-.1a2.42,2.42,0,0,1-1.86-1.33c-3-12.81-5.87-25.65-8.77-38.49A3.46,3.46,0,0,1,153.26,23.09Z" transform="translate(-2.64 -22.78)" style="fill: #004085"/>
      <path d="M25.4,43.12l2.67-5.23c2.19-4.32,4.43-8.61,6.55-13a2.82,2.82,0,0,1,3-1.89c2.66.11,5.32.08,8,0,1.43,0,2.07.43,2.06,1.93,0,12.33,0,24.65-.07,37,0,.62-.67,1.75-1.07,1.77-3.46.14-6.93.08-10.77.08V42.92l-.68-.2c-.42.63-.9,1.24-1.26,1.91-1.76,3.26-3.58,6.5-5.18,9.83-.74,1.54-1.82,1.74-3.29,1.75s-2.7-.16-3.48-1.79C20.23,51.15,18.43,48,16.7,44.8c-.38-.7-.82-1.37-1.24-2l-.6.09a21.38,21.38,0,0,0-.21,2.25c0,5.51-.06,11,0,16.55,0,1.62-.4,2.32-2.17,2.23-2.65-.13-5.32-.09-8,0-1.38,0-1.89-.47-1.89-1.83q0-18.6,0-37.19c0-1.22.46-1.79,1.75-1.77,3,0,5.93-.13,8.88.09A3.77,3.77,0,0,1,15.72,25c2.75,5.05,5.33,10.19,8,15.29C24.11,41,24.59,41.76,25.4,43.12Z" transform="translate(-2.64 -22.78)" style="fill: #004085"/>
      <path d="M234.53,39.67c0-1.43.05-2.62,0-3.8-.08-1.39.34-2.11,1.9-2.07,2.81.07,5.62,0,8.43,0,1.15,0,1.87.28,1.86,1.64,0,9.14,0,18.29-.06,27.44a3.56,3.56,0,0,1-.24.78H234.69c-.1-1.45-.21-2.9-.33-4.68-.55.38-.91.51-1.09.77C229.41,65.42,222.44,65,218,62.67A15.61,15.61,0,0,1,210.16,46a14.5,14.5,0,0,1,12.58-12,10,10,0,0,1,10.08,4.35c.26.37.53.73.82,1.08C233.72,39.48,233.91,39.48,234.53,39.67Zm-12.46,9.38a6.17,6.17,0,0,0,6.25,6.16,6.16,6.16,0,1,0,0-12.31A6.12,6.12,0,0,0,222.07,49.05Z" transform="translate(-2.64 -22.78)" style="fill: #004085"/>
      <path d="M137.18,39.68c0-1.35,0-2.6,0-3.83-.07-1.42.44-2.09,2-2.05,2.74.07,5.47.05,8.21,0,1.35,0,1.9.52,1.89,1.87,0,8.78,0,17.55-.07,26.33,0,.61-.84,1.72-1.33,1.74-3.39.15-6.8.08-10.42.08-.15-1.63-.28-3.09-.43-4.86a7.3,7.3,0,0,0-1.22,1c-3.07,4.12-7.22,5-12,3.9-6.9-1.59-11.56-8.25-11.22-15.9a14.64,14.64,0,0,1,12.62-14,10,10,0,0,1,10.28,4.41,9.51,9.51,0,0,0,.85,1C136.39,39.52,136.59,39.52,137.18,39.68Zm0,9.34a6.28,6.28,0,1,0-6.24,6.19A6.27,6.27,0,0,0,137.15,49Z" transform="translate(-2.64 -22.78)" style="fill: #004085"/>
      <path d="M65.63,52.09c1.06,4.46,4.7,5.06,15.16,2.51.41,2.18.88,4.34,1.17,6.53.05.37-.57,1.07-1,1.23-5.94,2.1-12,2.9-18,.55-6.7-2.62-10.17-8.68-9.34-15.95.74-6.55,6-11.75,12.87-12.85,9.83-1.57,16.83,4,17,13.38,0,1.6-.43,2.25-2.11,2.42-4.53.47-9,1.13-13.55,1.73C67.07,51.74,66.35,51.94,65.63,52.09ZM70,40.38c-2.75.33-5,2.43-5,5,0,.4,1,1.17,1.46,1.11a49.46,49.46,0,0,0,5.76-1.19c.74-.19,2-.72,2-1A3.46,3.46,0,0,0,73.09,42,15.32,15.32,0,0,0,70,40.38Z" transform="translate(-2.64 -22.78)" style="fill: #004085"/>
      <path d="M109,54.85c.14,2.3.39,4.39.33,6.47A2.27,2.27,0,0,1,108,63c-2.8.53-5.68,1.3-8.47,1.12-5.27-.35-8.51-3.83-8.95-9.18-.27-3.3-.13-6.64-.15-10,0-3.55,0-3.55-3.84-4,0-1.93-.09-3.93.08-5.91,0-.35,1.14-.94,1.68-.88,2.28.28,3.46-.74,4.3-2.75,1-2.37,2.31-4.59,3.37-6.93,1.16-2.57,3.37-1.56,5.16-1.47s1.12,1.83,1.18,2.89c.11,2.11.06,4.23,0,6.35,0,1.33.55,2,1.91,1.85h.46c4.92.11,5.56.88,4.64,5.81-.09.47-.77.85-1.23,1.22-.14.11-.44,0-.67,0-5.12.18-5.12.18-5.12,5.25,0,1.43,0,2.87,0,4.3.16,3.21,1.39,4.31,4.59,4.21Z" transform="translate(-2.64 -22.78)" style="fill: #004085"/>
      <path d="M288.1,22.94v6.6q0,10.2,0,20.4c0,4.51.88,5.3,5.41,4.89.29,0,.59,0,1.19,0,.12,2.23.33,4.39.28,6.54a2.05,2.05,0,0,1-1.3,1.51c-3,.54-6.13,1.4-9.14,1.19-5.07-.37-8.35-4.17-8.51-9.84-.26-9.36-.11-18.73-.07-28.1,0-.51.54-1.39.95-1.46C280.48,24,284.07,23.54,288.1,22.94Z" transform="translate(-2.64 -22.78)" style="fill: #004085"/>
      <path d="M265.41,22.94V26q0,12.35,0,24.7c0,3.4,1,4.5,4.31,4.2,1.88-.18,2.35.42,2.45,2.15.32,5.91.25,6.07-5.63,7-8.09,1.27-13.08-2.55-13.33-10.74-.27-9-.09-18-.06-27,0-.56.41-1.55.76-1.62C257.6,24.08,261.33,23.56,265.41,22.94Z" transform="translate(-2.64 -22.78)" style="fill: #004085"/>
    </g>
  </g>
</svg>
