<svg id="圖層_1" data-name="圖層 1" xmlns="http://www.w3.org/2000/svg" width="103.69" height="110.4" viewBox="0 0 103.69 110.4">
  <g id="BIJdoQ.tif">
    <g>
      <path d="M69.81,125.2H23.06c-2.87,0-4.8-1.26-4.89-3.44a18.39,18.39,0,0,1,.53-5.23c1.67-6.5,6.21-11.09,10.83-15.53A57.39,57.39,0,0,1,53.78,87.23a55.89,55.89,0,0,1,20-2.21c16.83,1.28,30.81,8.31,41.74,21.24,2.49,2.95,4.89,6,5.75,9.88a22.59,22.59,0,0,1,.6,5.61c-.07,2.14-2,3.43-4.7,3.44q-17.08,0-34.17,0Z" transform="translate(-18.15 -14.8)" style="fill: #7c7c7c"/>
      <path d="M99.86,44.58a29.86,29.86,0,1,1-30-29.78A29.87,29.87,0,0,1,99.86,44.58Z" transform="translate(-18.15 -14.8)" style="fill: #7c7c7c"/>
    </g>
  </g>
</svg>
